<svg width="600" height="630" viewBox="0 0 600 630" fill="none" xmlns="http://www.w3.org/2000/svg">
<path d="M562.625 291.992C525.416 347.473 446.008 519.06 465.541 582.74L180.661 582.805C180.661 582.805 139.496 552.284 99.5059 499.22C92.2383 489.579 85.0106 479.184 78.081 468.1C70.7225 456.356 63.702 443.829 57.3224 430.577C38.7823 392.144 25.5524 347.603 25.0174 298.372C23.1512 127.953 171.267 -30.4328 372.76 33.4806C574.251 97.394 599.824 236.511 562.625 291.992Z" fill="#EEF9F8"/>
<path d="M384.384 584.75C383.811 584.75 383.244 584.5 382.857 584.022L230.934 395.916C230.257 395.076 230.39 393.851 231.232 393.174C232.075 392.501 233.308 392.633 233.984 393.473L385.908 581.578C386.585 582.416 386.451 583.643 385.61 584.317C385.248 584.608 384.816 584.75 384.384 584.75Z" fill="#E13122"/>
<path d="M148.721 584.75C148.29 584.75 147.857 584.608 147.497 584.317C146.655 583.643 146.521 582.416 147.197 581.578L299.121 393.473C299.8 392.633 301.031 392.501 301.872 393.174C302.716 393.851 302.85 395.076 302.171 395.916L150.248 584.022C149.861 584.5 149.293 584.75 148.721 584.75" fill="#F14E25"/>
<path d="M300.647 584.75C300.074 584.75 299.508 584.5 299.121 584.022L147.197 395.916C146.521 395.076 146.655 393.851 147.497 393.174C148.34 392.501 149.571 392.633 150.248 393.473L302.171 581.578C302.848 582.416 302.714 583.643 301.873 584.317C301.511 584.608 301.077 584.75 300.647 584.75Z" fill="#F14E25"/>
<path d="M175.643 399.688H105.061C102.292 399.688 100.046 397.451 100.046 394.694C100.046 391.936 102.292 389.701 105.061 389.701H175.643C178.412 389.701 180.658 391.936 180.658 394.694C180.658 397.451 178.412 399.688 175.643 399.688" fill="#E13122"/>
<path d="M378.722 399.688H176.99C174.221 399.688 171.977 397.451 171.977 394.694C171.977 391.936 174.221 389.701 176.99 389.701H378.722V399.688" fill="#F14E25"/>
<path d="M230.161 488.747C230.161 491.76 227.71 494.202 224.684 494.202C221.658 494.202 219.207 491.76 219.207 488.747C219.207 485.735 221.658 483.292 224.684 483.292C227.71 483.292 230.161 485.735 230.161 488.747Z" fill="#E13122"/>
<path d="M313.898 488.747C313.898 491.76 311.445 494.202 308.421 494.202C305.395 494.202 302.943 491.76 302.943 488.747C302.943 485.735 305.395 483.292 308.421 483.292C311.445 483.292 313.898 485.735 313.898 488.747Z" fill="#FBC52F"/>
<path d="M241.013 240.608H169.906C166.394 240.608 163.549 237.773 163.549 234.277V181.614C163.549 178.119 166.394 175.284 169.906 175.284H241.013C244.525 175.284 247.371 178.119 247.371 181.614V234.277C247.371 237.773 244.525 240.608 241.013 240.608Z" fill="#50C4C0"/>
<path d="M207.621 218.442C200.442 219.795 194.275 213.653 195.633 206.504C196.39 202.512 199.625 199.291 203.635 198.535C210.814 197.184 216.981 203.325 215.623 210.473C214.864 214.467 211.63 217.688 207.621 218.442ZM223.651 204.13H221.019C220.616 202.698 220.02 201.34 219.243 200.097L221.274 198.077C222.047 197.305 222.047 196.054 221.274 195.284L218.416 192.438C217.641 191.668 216.387 191.668 215.612 192.438L213.454 194.587C212.261 193.919 210.983 193.395 209.632 193.054V189.831C209.632 188.741 208.746 187.858 207.651 187.858H203.61C202.515 187.858 201.627 188.741 201.627 189.831V193.09C200.316 193.427 199.075 193.922 197.917 194.559L195.548 192.198C194.775 191.428 193.519 191.428 192.746 192.198L189.888 195.044C189.113 195.816 189.113 197.065 189.888 197.837L192.081 200.021C191.348 201.183 190.771 202.452 190.356 203.792H187.27C186.175 203.792 185.287 204.674 185.287 205.765V209.789C185.287 210.88 186.175 211.764 187.27 211.764H189.974C190.278 213.251 190.792 214.667 191.495 215.979L189.647 217.817C188.872 218.588 188.872 219.838 189.647 220.608L192.505 223.454C193.28 224.225 194.535 224.225 195.309 223.454L196.913 221.857C198.25 222.724 199.723 223.394 201.287 223.827V226.061C201.287 227.151 202.175 228.035 203.27 228.035H207.311C208.407 228.035 209.294 227.151 209.294 226.061V223.976C210.914 223.597 212.44 222.983 213.828 222.155L215.373 223.694C216.146 224.465 217.401 224.465 218.175 223.694L221.034 220.847C221.808 220.077 221.808 218.826 221.034 218.057L219.447 216.477C220.235 215.131 220.826 213.662 221.19 212.102H223.651C224.745 212.102 225.634 211.218 225.634 210.127V206.103C225.634 205.012 224.745 204.13 223.651 204.13" fill="white"/>
<path d="M348.069 204.522H276.96C273.45 204.522 270.603 201.688 270.603 198.191V145.529C270.603 142.032 273.45 139.199 276.96 139.199H348.069C351.579 139.199 354.426 142.032 354.426 145.529V198.191C354.426 201.688 351.579 204.522 348.069 204.522Z" fill="#F14E25"/>
<path d="M298.361 182.838C297.86 182.838 297.36 182.635 296.977 182.229L288.143 172.812C287.378 171.997 287.378 170.677 288.143 169.864L297.127 160.29C297.891 159.475 299.131 159.475 299.895 160.29C300.66 161.104 300.66 162.425 299.895 163.238L292.294 171.337L299.745 179.279C300.51 180.094 300.51 181.414 299.745 182.229C299.362 182.635 298.863 182.838 298.361 182.838" fill="white"/>
<path d="M326.665 182.838C326.165 182.838 325.664 182.635 325.282 182.229C324.516 181.414 324.516 180.094 325.282 179.279L332.734 171.337L325.132 163.238C324.368 162.425 324.368 161.104 325.132 160.29C325.897 159.475 327.136 159.475 327.899 160.29L336.885 169.864C337.253 170.254 337.457 170.785 337.457 171.337C337.457 171.891 337.253 172.421 336.885 172.812L328.049 182.229C327.666 182.635 327.164 182.838 326.665 182.838" fill="white"/>
<path d="M308.127 185.426C307.884 185.426 307.633 185.377 307.391 185.272C306.388 184.839 305.908 183.621 306.315 182.554L315.084 159.595C315.492 158.531 316.629 158.012 317.636 158.45C318.637 158.883 319.119 160.101 318.712 161.168L309.942 184.127C309.631 184.935 308.901 185.426 308.127 185.426" fill="white"/>
<path d="M412.256 217.074H235.825V211.681C235.825 210.226 237.008 209.046 238.47 209.046H409.611C411.073 209.046 412.256 210.226 412.256 211.681V217.074Z" fill="white"/>
<path d="M407.331 310.745H240.751C238.03 310.745 235.825 308.548 235.825 305.838V217.074H412.256V305.838C412.256 308.548 410.053 310.745 407.331 310.745Z" fill="#343573"/>
<path d="M403.789 213.061C403.789 213.743 403.233 214.296 402.549 214.296C401.863 214.296 401.307 213.743 401.307 213.061C401.307 212.378 401.863 211.826 402.549 211.826C403.233 211.826 403.789 212.378 403.789 213.061Z" fill="#F14E25"/>
<path d="M395.262 213.061C395.262 213.743 394.707 214.296 394.022 214.296C393.336 214.296 392.782 213.743 392.782 213.061C392.782 212.378 393.336 211.826 394.022 211.826C394.707 211.826 395.262 212.378 395.262 213.061Z" fill="#F14E25"/>
<path d="M386.737 213.061C386.737 213.743 386.18 214.296 385.495 214.296C384.811 214.296 384.256 213.743 384.256 213.061C384.256 212.378 384.811 211.826 385.495 211.826C386.18 211.826 386.737 212.378 386.737 213.061Z" fill="#F14E25"/>
<path d="M342.943 229.734H244.97C244.028 229.734 243.265 228.974 243.265 228.035C243.265 227.097 244.028 226.337 244.97 226.337H342.943C343.885 226.337 344.647 227.097 344.647 228.035C344.647 228.974 343.885 229.734 342.943 229.734Z" fill="#50C4C0"/>
<path d="M342.943 240.54H244.97C244.028 240.54 243.265 239.78 243.265 238.841C243.265 237.903 244.028 237.143 244.97 237.143H342.943C343.885 237.143 344.647 237.903 344.647 238.841C344.647 239.78 343.885 240.54 342.943 240.54Z" fill="#50C4C0"/>
<path d="M296.205 251.346H244.97C244.028 251.346 243.265 250.586 243.265 249.647C243.265 248.709 244.028 247.949 244.97 247.949H296.205C297.146 247.949 297.909 248.709 297.909 249.647C297.909 250.586 297.146 251.346 296.205 251.346Z" fill="#50C4C0"/>
<path d="M342.943 272.958H244.97C244.028 272.958 243.265 272.197 243.265 271.259C243.265 270.321 244.028 269.561 244.97 269.561H342.943C343.885 269.561 344.647 270.321 344.647 271.259C344.647 272.197 343.885 272.958 342.943 272.958Z" fill="#F14E25"/>
<path d="M296.205 283.764H244.97C244.028 283.764 243.265 283.003 243.265 282.065C243.265 281.129 244.028 280.368 244.97 280.368H296.205C297.146 280.368 297.909 281.129 297.909 282.065C297.909 283.003 297.146 283.764 296.205 283.764Z" fill="#F14E25"/>
<path d="M296.205 294.57H244.97C244.028 294.57 243.265 293.809 243.265 292.871C243.265 291.935 244.028 291.174 244.97 291.174H296.205C297.146 291.174 297.909 291.935 297.909 292.871C297.909 293.809 297.146 294.57 296.205 294.57Z" fill="#50C4C0"/>
<path d="M342.943 251.346H306.126C305.183 251.346 304.42 250.586 304.42 249.647C304.42 248.709 305.183 247.949 306.126 247.949H342.943C343.885 247.949 344.647 248.709 344.647 249.647C344.647 250.586 343.885 251.346 342.943 251.346Z" fill="white"/>
<path d="M391.575 227.08L365.542 253.005C364.875 253.668 363.796 253.668 363.13 253.005C362.463 252.341 362.463 251.265 363.13 250.603L389.163 224.678C389.829 224.014 390.91 224.014 391.575 224.678C392.241 225.34 392.241 226.416 391.575 227.08Z" fill="#F14E25"/>
<path d="M392.705 276.123C392.705 284.566 385.83 291.411 377.352 291.411C368.875 291.411 362.001 284.566 362.001 276.123C362.001 267.68 368.875 260.834 377.352 260.834C385.83 260.834 392.705 267.68 392.705 276.123Z" fill="#F14E25"/>
<path d="M375.344 286.777C375.344 291.557 371.454 295.432 366.654 295.432C361.854 295.432 357.963 291.557 357.963 286.777C357.963 281.997 361.854 278.122 366.654 278.122C371.454 278.122 375.344 281.997 375.344 286.777Z" fill="#50C4C0"/>
<path d="M235.825 301.266V332.174L264.35 303.766" fill="#343573"/>
<path d="M205.46 340.531H268.049L290.682 383.91H228.094L205.46 340.531" fill="#87C5B8"/>
<path d="M229.36 380.702L210.619 344.783C210.227 344.029 210.776 343.131 211.628 343.131H265.774C266.198 343.131 266.586 343.364 266.782 343.739L285.522 379.657C285.916 380.411 285.367 381.31 284.515 381.31H230.369C229.945 381.31 229.556 381.076 229.36 380.702" fill="white"/>
<path d="M278.785 383.91H228.094V389.701H278.785V383.91Z" fill="#BBE8E0"/>
<path d="M322.334 383.91H272.312C270.707 383.91 269.406 385.207 269.406 386.804C269.406 388.404 270.707 389.701 272.312 389.701H322.334C323.941 389.701 325.242 388.404 325.242 386.804C325.242 385.207 323.941 383.91 322.334 383.91Z" fill="#9FD2C5"/>
<path d="M228.094 383.91L205.461 340.53L204.326 341.378C203.594 341.926 203.368 342.921 203.795 343.729L228.094 389.701V383.91Z" fill="#BBE8E0"/>
<path d="M250.881 387.577H245.3V386.612H250.881V387.577Z" fill="#9FD2C5"/>
<path d="M257.895 387.577H252.314V386.612H257.895V387.577Z" fill="#9FD2C5"/>
<path d="M264.91 387.577H259.331V386.612H264.91V387.577Z" fill="#9FD2C5"/>
<path d="M342.202 468.815C342.202 468.815 290.287 509.068 282.053 519.293C278.948 523.167 273.532 529.948 267.923 536.9C258.712 548.322 248.938 560.223 247.778 560.509C245.925 560.975 230.346 549.166 229.876 546.618C229.589 545.033 243.772 520.789 256.05 501.298C263.526 489.45 270.284 479.34 272.659 477.157C278.935 471.362 317.555 450.989 317.555 450.989L342.202 468.815" fill="#343573"/>
<path d="M242.39 552.568H312.132V474.533H242.39V552.568Z" fill="#2C2E5F"/>
<path d="M396.31 292.29C395.763 293.538 395.135 294.837 394.432 296.162C390.635 303.387 393.441 310.624 389.108 312.469C388.848 312.573 388.559 312.677 388.234 312.742C382.65 313.977 369.786 306.57 369.223 302.868C368.663 299.164 373.189 292.824 369.223 292.057C365.258 291.29 363.117 297.929 363.117 297.929C359.856 298.267 358.695 292.824 353.344 292.824C352.588 292.824 351.845 292.928 351.128 293.109C348.609 293.733 346.405 295.279 344.994 296.475C343.951 297.345 343.35 298.034 343.35 298.034C343.35 298.034 338.589 295.032 338.81 289.12C339.188 279.752 342.658 272.918 351.023 271.528C351.949 261.107 360.56 255.546 372.067 255.196C382.154 254.883 383.667 263.914 383.901 266.162C383.812 264.486 383.342 258.975 380.941 255.196C385.99 254.973 390.439 258.561 389.277 270.254C390.439 266.773 394.51 264.576 397.641 267.122C394.745 267.122 391.952 271.982 391.952 271.982C391.952 271.982 395.358 274.152 397.681 278.166C399.611 281.481 398.881 286.378 396.31 292.29" fill="#322020"/>
<path d="M389.107 312.469L388.978 314.185L388.535 320.265C388.535 320.265 379.243 328.178 373.973 320.265L373.856 320.109C372.224 317.693 370.749 316.848 369.406 316.691C368.387 316.569 367.435 316.837 366.525 317.106C364.84 317.603 363.297 318.099 361.72 316.107C354.78 307.336 352.014 297.176 351.127 293.109C351.845 292.928 352.588 292.824 353.343 292.824C358.695 292.824 359.855 298.267 363.117 297.929C363.117 297.929 365.258 291.29 369.222 292.057C373.188 292.824 368.663 299.164 369.222 302.868C369.471 304.517 372.173 306.908 375.589 308.935C379.57 311.313 384.529 313.197 387.671 312.834C387.867 312.807 388.052 312.78 388.234 312.742C388.559 312.677 388.847 312.573 389.107 312.469" fill="#F89D8A"/>
<path d="M371.921 325.361C371.228 324.127 370.152 321.771 371.024 320.265C371.26 319.849 371.847 319.277 372.68 318.601C372.682 318.601 372.682 318.601 372.682 318.599C373.064 319.017 373.455 319.515 373.857 320.109L373.973 320.265C374.655 321.292 375.406 322.051 376.195 322.597C374.961 323.387 373.493 324.335 371.921 325.361Z" fill="#E9F8F5"/>
<path d="M376.195 322.597C375.406 322.051 374.655 321.292 373.973 320.265L373.856 320.109C373.455 319.515 373.064 319.017 372.682 318.599C374.367 317.223 377.08 315.458 379.884 314.002C379.884 314.002 379.885 314.002 379.885 314.001C379.186 315.039 378.835 315.766 378.722 316.017L378.709 316.107C378.513 316.952 378.317 317.836 378.135 318.758C377.936 319.714 377.737 320.706 377.541 321.736C377.134 321.995 376.683 322.284 376.195 322.597" fill="#F6836D"/>
<path d="M389.316 425.134C379.975 426.926 360.208 421.443 350.748 417.207C347.955 415.959 346.05 414.816 345.595 414.01C343.78 410.827 345.607 408.384 350.109 398.277C350.618 397.132 351.152 395.899 351.727 394.56C354.78 387.401 354.793 372.134 354.78 358.971C354.74 347.706 354.689 337.987 356.489 336.26C360.389 332.517 379.857 320.265 379.857 320.265L383.732 340.378C383.732 340.378 385.924 350.592 388.234 363.922C392.487 388.466 397.159 423.625 389.316 425.134" fill="#50C4C0"/>
<path d="M395.829 434.085C395.829 435.008 386.525 456.615 378.722 459.707C370.921 462.8 323.897 459.396 323.897 459.396L300.647 474.533L305.512 520.139L308.905 551.919L309.01 552.948C301.899 557.572 283.985 558.82 282.053 554.83L282.041 554.803C280.174 550.789 251.654 465.268 262.822 450.443C273.978 435.632 345.595 414.01 345.595 414.01C347.462 415.193 349.626 416.258 351.989 417.207C359.947 420.455 370.06 422.495 377.758 423.69C380.718 424.146 383.315 424.484 385.298 424.716C387.804 425.016 389.317 425.134 389.317 425.134C389.317 425.134 395.829 433.15 395.829 434.085" fill="#343573"/>
<path d="M311.957 582.74H251.496C251.196 581.675 251.601 580.597 252.514 579.505C254.966 576.568 261.111 573.618 267.035 571.072C272.659 568.654 278.061 566.577 279.874 565.147C284.141 561.782 282.171 555.234 282.053 554.83C282.705 556.169 285.171 556.921 288.434 557.143C294.84 557.597 304.301 556.013 309.01 552.948L308.904 551.919C310.706 555.35 311.554 572.307 311.841 579.505C311.919 581.492 311.957 582.74 311.957 582.74" fill="#202853"/>
<path d="M288.434 557.143C288.251 560.015 287.833 564.665 286.998 565.914C285.759 567.772 272.424 574.255 270.57 573.632C269.372 573.242 267.91 571.942 267.035 571.072C272.659 568.654 278.061 566.577 279.874 565.147C284.141 561.782 282.171 555.234 282.053 554.83C282.705 556.169 285.171 556.921 288.434 557.143Z" fill="#304383"/>
<path d="M311.957 582.74H251.496C251.196 581.675 251.601 580.597 252.514 579.505H311.841C311.919 581.492 311.957 582.74 311.957 582.74" fill="#304383"/>
<path d="M247.778 560.509C247.778 560.509 243.185 572.566 239.205 578.945C237.627 581.492 236.127 583.143 235.068 582.74C231.351 581.349 193.983 549.711 197.557 547.398C198.08 547.061 198.915 546.826 199.959 546.696C203.208 546.28 208.596 546.734 213.581 547.242C217.86 547.684 221.839 548.165 223.914 548.165C229.184 548.165 229.876 546.618 229.876 546.618C229.994 547.23 230.986 548.387 232.46 549.789C237.078 554.154 246.369 560.859 247.778 560.509" fill="#202853"/>
<path d="M232.46 549.789C224.541 555.011 216.282 551.868 214.649 550.673C213.449 549.801 213.449 548.179 213.581 547.242C217.86 547.684 221.839 548.165 223.914 548.165C229.184 548.165 229.876 546.618 229.876 546.618C229.994 547.23 230.986 548.387 232.46 549.789Z" fill="#304383"/>
<path d="M239.205 578.945C237.627 581.492 236.127 583.143 235.068 582.74C231.351 581.349 193.983 549.711 197.557 547.398C198.08 547.061 198.915 546.826 199.959 546.696L239.205 578.945" fill="#304383"/>
<path d="M350.774 385.724C347.852 389.777 342.62 395.964 338.314 395.338C338.158 395.314 337.989 395.287 337.78 395.249C329.558 393.806 281.218 381.735 278.935 381.281C276.612 380.827 260.343 380.67 261.269 378.968C262.195 377.266 271.498 371.874 273.977 372.004C276.456 372.134 286.228 374.953 295.987 374.641C305.761 374.342 331.334 374.641 331.334 374.641L332.574 372.51L334.399 369.365C333.891 378.798 345.308 386.491 350.774 385.724" fill="#F89D8A"/>
<path d="M357.227 437.278C357.136 437.278 357.044 437.26 356.956 437.221C353.921 435.847 352.121 433.53 351.118 431.107C350.111 428.682 349.867 426.143 349.865 424.191C349.865 422.184 350.128 420.79 350.133 420.763C350.192 420.45 350.466 420.233 350.774 420.233C350.814 420.233 350.854 420.236 350.893 420.244C351.249 420.311 351.482 420.65 351.415 421.003C351.415 421.003 351.402 421.073 351.38 421.222C351.356 421.373 351.325 421.593 351.294 421.876C351.233 422.44 351.169 423.244 351.169 424.191C351.169 426.035 351.41 428.416 352.323 430.61C353.242 432.807 354.796 434.809 357.496 436.038C357.825 436.186 357.97 436.571 357.82 436.898C357.712 437.136 357.474 437.278 357.227 437.278" fill="#2C2E5F"/>
<path d="M300.645 552.568C300.344 552.568 300.073 552.359 300.008 552.052C300.008 552.048 291.623 512.445 287.425 485.71C286.026 476.79 285.09 469.323 285.088 465.146C285.093 463.811 285.171 462.823 285.423 462.111C285.651 461.496 286.091 460.909 286.697 460.277C287.303 459.647 288.084 458.98 289.019 458.271C290.889 456.853 293.375 455.27 296.276 453.587C302.072 450.222 309.52 446.458 316.88 442.932C331.597 435.881 345.958 429.782 345.963 429.779C346.046 429.744 346.133 429.726 346.218 429.726C346.471 429.726 346.714 429.875 346.819 430.121C346.961 430.452 346.806 430.833 346.475 430.974C346.47 430.975 344.704 431.726 341.767 433.009C338.829 434.292 334.726 436.103 330.068 438.221C320.752 442.455 309.209 447.914 300.33 452.794C294.416 456.037 289.662 459.063 287.639 461.176C287.099 461.733 286.767 462.223 286.651 462.554C286.498 462.954 286.388 463.884 286.392 465.146C286.388 472.178 289.236 489.715 292.445 507.12C295.653 524.538 299.219 541.883 300.645 548.73C301.052 550.687 301.285 551.782 301.285 551.786C301.36 552.136 301.133 552.481 300.781 552.556C300.736 552.565 300.69 552.568 300.645 552.568" fill="#2C2E5F"/>
<path d="M305.512 520.139C305.512 520.139 295.688 468.049 295.688 464.644C295.688 461.736 360.638 443.142 377.757 423.69C380.718 424.154 383.316 424.491 385.296 424.721C385.333 424.972 385.368 425.222 385.403 425.472C385.907 429.15 386.2 432.547 386.2 435.487C386.2 441.839 384.83 446.064 381.253 446.428C372.262 447.365 366.366 447.663 364.201 456.615L323.897 459.396L303.816 472.285L300.647 474.533L305.512 520.139Z" fill="#2C2E5F"/>
<path d="M350.109 398.277C350.617 397.132 351.151 395.899 351.727 394.56C352.902 391.803 353.627 387.842 354.073 383.261C362.275 375.395 369.423 363.581 369.076 353.1C369.616 359.134 370.07 371.947 365.205 378.812C361.172 384.504 354.674 391.727 350.109 398.277" fill="#43BAB4"/>
<path d="M353.32 383.97C352.719 384.516 352.105 385.062 351.491 385.569C351.271 385.647 351.035 385.699 350.774 385.724C345.308 386.491 333.891 378.798 334.399 369.365C334.439 368.665 335 367.262 335.914 365.43C340.584 356.048 354.637 335.168 357.221 336.13C357.221 336.13 366.248 337.519 368.701 349.798C370.997 361.323 362.712 375.304 353.32 383.97" fill="#389A9A"/>
<path d="M385.294 424.716C383.311 424.483 380.716 424.146 377.757 423.69C370.059 422.495 359.946 420.455 351.988 417.207C359.007 416.96 374.025 412.361 375.839 378.124C376.66 384.529 377.901 391.168 379.622 397.964C381.926 406.989 384.107 416.515 385.294 424.716" fill="#43BAB4"/>
<path d="M372.68 318.601C372.393 318.288 372.113 318.02 371.835 317.793C372.113 318.02 372.395 318.287 372.682 318.599C372.682 318.601 372.682 318.601 372.68 318.601" fill="#E9F8F5"/>
<path d="M372.682 318.599C372.395 318.287 372.113 318.02 371.835 317.793C370.981 317.091 370.174 316.78 369.406 316.691L375.585 308.941C377.464 310.062 379.559 311.073 381.578 311.792L381.585 311.788L381.578 311.792C381.013 312.451 380.545 313.061 380.163 313.6C380.064 313.739 379.972 313.874 379.884 314.002C377.08 315.458 374.367 317.223 372.682 318.599" fill="#F6836D"/>
<path d="M338.931 395.383C338.724 395.383 338.517 395.368 338.314 395.338C338.158 395.314 337.989 395.287 337.78 395.249C332.456 387.583 332.26 377.538 332.574 372.51L334.399 369.365C334.397 369.404 334.396 369.443 334.394 369.481C334.031 377.776 342.861 384.699 348.673 385.662C348.678 385.662 348.682 385.664 348.685 385.664C348.697 385.666 348.708 385.667 348.719 385.67C348.741 385.674 348.765 385.677 348.787 385.68C348.802 385.683 348.818 385.685 348.832 385.688C348.878 385.694 348.923 385.701 348.969 385.707C349.012 385.712 349.054 385.718 349.095 385.723C349.269 385.743 349.438 385.758 349.605 385.767H349.607C349.656 385.769 349.704 385.772 349.754 385.774C349.83 385.775 349.905 385.777 349.98 385.777C350.256 385.777 350.522 385.759 350.774 385.724C347.99 389.585 343.109 395.383 338.931 395.383" fill="#F6836D"/>
<path d="M349.753 385.774C349.704 385.772 349.656 385.769 349.607 385.767C349.656 385.769 349.704 385.772 349.753 385.774ZM349.605 385.767C349.438 385.758 349.269 385.743 349.095 385.723C349.269 385.743 349.438 385.758 349.605 385.767ZM348.832 385.688C348.818 385.685 348.802 385.683 348.787 385.68C348.802 385.683 348.818 385.685 348.832 385.688ZM348.719 385.67C348.708 385.667 348.697 385.666 348.685 385.664C348.697 385.666 348.708 385.667 348.719 385.67ZM348.673 385.662C342.86 384.699 334.031 377.776 334.394 369.481C334.031 377.776 342.86 384.699 348.673 385.662Z" fill="#2E7D80"/>
<path d="M392.264 303.666C392.45 302.196 392.723 300.629 393.236 299.027C392.724 300.628 392.455 302.193 392.268 303.663C392.267 303.664 392.265 303.664 392.264 303.666" fill="#272952"/>
<path d="M381.593 311.781C380.514 311.399 379.411 310.937 378.333 310.414C377.391 309.959 376.466 309.459 375.59 308.935C374.067 308.032 372.685 307.055 371.601 306.104C370.254 304.923 369.363 303.782 369.223 302.868C369.189 302.644 369.173 302.409 369.175 302.167C369.178 299.656 370.868 296.299 370.868 294.138C370.868 293.07 370.455 292.295 369.223 292.057C369.006 292.014 368.795 291.995 368.59 291.995C368.588 291.995 368.585 291.995 368.583 291.995C366.736 292 365.333 293.601 364.41 295.14C363.559 296.562 363.117 297.929 363.117 297.929C363.02 297.94 362.923 297.945 362.829 297.945C362.827 297.945 362.824 297.945 362.822 297.945C361.121 297.942 359.98 296.34 358.399 294.929C357.15 293.817 355.63 292.824 353.344 292.824C352.588 292.824 351.845 292.928 351.128 293.109C348.609 293.733 346.404 295.279 344.994 296.475C344.994 296.475 349.969 289.517 357.968 289.517C358.776 289.517 359.615 289.588 360.482 289.744C360.482 289.744 359.25 287.406 353.758 287.406C353.431 287.406 353.09 287.413 352.733 287.431C358.032 285.712 362.572 284.945 366.376 284.945C372.143 284.945 376.219 286.707 378.696 289.588C380.906 292.166 385.079 295.144 389.498 295.146C391.783 295.146 394.131 294.351 396.31 292.29C395.763 293.538 395.135 294.837 394.432 296.162C393.927 297.122 393.539 298.081 393.236 299.027C392.723 300.629 392.451 302.196 392.264 303.666C391.497 304.061 390.773 304.463 390.086 304.868C386.055 307.259 383.342 309.74 381.593 311.781" fill="#261A19"/>
<path d="M378.333 310.414C377.39 309.96 376.466 309.462 375.589 308.935L375.584 308.941C374.064 308.035 372.685 307.057 371.601 306.104C372.685 307.055 374.067 308.032 375.589 308.935C376.466 309.459 377.39 309.959 378.333 310.414ZM369.222 302.868C369.189 302.644 369.173 302.409 369.174 302.168C369.173 302.409 369.189 302.644 369.222 302.868ZM362.822 297.945C361.121 297.942 359.98 296.34 358.398 294.929C359.98 296.34 361.121 297.942 362.822 297.945ZM363.117 297.929C363.117 297.929 363.118 297.927 363.12 297.923C363.118 297.927 363.117 297.929 363.117 297.929ZM370.867 294.138C370.867 293.07 370.455 292.295 369.222 292.057C369.007 292.014 368.795 291.995 368.589 291.995C368.795 291.995 369.005 292.014 369.222 292.057C370.455 292.295 370.867 293.07 370.867 294.138ZM351.127 293.109C351.845 292.928 352.588 292.824 353.343 292.824C352.588 292.824 351.845 292.928 351.127 293.109ZM368.583 291.995C368.585 291.995 368.588 291.995 368.589 291.995C368.588 291.995 368.585 291.995 368.583 291.995Z" fill="#F6836D"/>
<path d="M391.991 306.166C391.991 306.166 391.989 306.165 391.988 306.163C391.988 306.16 391.988 306.156 391.989 306.151C391.991 306.153 391.991 306.155 391.993 306.155C391.993 306.16 391.993 306.163 391.991 306.166Z" fill="#272952"/>
<path d="M391.988 306.163C391.534 305.816 391.073 305.489 390.609 305.19C391.073 305.487 391.532 305.806 391.99 306.152C391.988 306.157 391.988 306.16 391.988 306.163" fill="#261A19"/>
<path d="M381.585 311.788C380.507 311.405 379.409 310.937 378.333 310.414C379.411 310.937 380.514 311.399 381.593 311.781L381.585 311.788" fill="#1F1616"/>
<path d="M381.578 311.792C379.559 311.073 377.464 310.062 375.584 308.941L375.589 308.935C376.466 309.462 377.391 309.96 378.333 310.414C379.409 310.937 380.507 311.405 381.585 311.788L381.578 311.792" fill="#F3654F"/>
<path d="M423.422 474.533H376.909C376.909 474.533 413.807 463.722 413.807 390.857C413.807 389.92 413.807 388.998 413.794 388.075C413.416 339.378 402.963 312.521 390.086 304.868C394.118 302.491 399.48 300.216 406.565 298.645C409.659 297.943 413.062 297.384 416.834 296.994C448.683 293.759 474.125 306.193 477.152 320.265C480.166 334.338 461.547 474.533 423.422 474.533" fill="#BBE8E0"/>
<path d="M413.806 390.857C413.806 463.722 376.909 474.533 376.909 474.533H300.646L303.816 472.285L323.897 459.396L364.201 456.615C366.366 447.663 372.262 447.365 381.253 446.428C386.485 445.896 386.995 437.1 385.403 425.472C384.24 417.102 381.997 407.266 379.622 397.964C377.901 391.168 376.66 384.529 375.839 378.124C374.859 370.626 374.43 363.466 374.389 356.723C374.272 341.365 376.152 328.243 378.135 318.758C378.317 317.836 378.513 316.952 378.709 316.107L378.722 316.017C378.903 315.613 379.702 313.977 381.578 311.792L381.593 311.781C383.341 309.74 386.054 307.259 390.086 304.868C390.727 305.244 391.364 305.687 391.991 306.166C403.982 315.263 413.429 341.808 413.794 388.075C413.806 388.998 413.806 389.92 413.806 390.857" fill="#87C5B8"/>
<path d="M399.09 582.74H344.185C342.306 582.74 341.485 580.374 342.972 579.217L356.712 568.512C362.805 563.756 366.366 556.467 366.366 548.763V474.533H376.909V548.763C376.909 556.467 380.471 563.756 386.576 568.512L400.302 579.217C401.79 580.374 400.968 582.74 399.09 582.74" fill="#BBE8E0"/>
<path d="M442.021 303.506C441.745 303.506 441.489 303.329 441.399 303.053C441.074 302.037 440.811 301.278 440.632 300.774C440.452 300.269 440.357 300.028 440.357 300.028C440.226 299.693 440.392 299.316 440.727 299.186C440.805 299.156 440.884 299.142 440.964 299.142C441.226 299.142 441.471 299.297 441.571 299.554C441.576 299.567 441.981 300.599 442.643 302.658C442.753 302.999 442.563 303.366 442.22 303.474C442.155 303.496 442.086 303.506 442.021 303.506" fill="#AAE2D8"/>
<path d="M418.817 466.257C418.659 466.257 418.501 466.2 418.377 466.086C418.11 465.844 418.093 465.433 418.335 465.168C419.821 463.552 421.248 461.895 422.615 460.199C422.745 460.041 422.933 459.958 423.124 459.958C423.267 459.958 423.412 460.004 423.532 460.101C423.813 460.325 423.857 460.734 423.632 461.014C422.247 462.73 420.803 464.408 419.298 466.046C419.169 466.186 418.994 466.257 418.817 466.257M427.104 455.996C426.975 455.996 426.843 455.956 426.73 455.877C426.435 455.669 426.365 455.264 426.572 454.97C427.839 453.183 429.051 451.362 430.205 449.509C430.328 449.311 430.541 449.201 430.76 449.201C430.876 449.201 430.996 449.233 431.102 449.3C431.409 449.489 431.503 449.889 431.313 450.193C430.146 452.068 428.922 453.911 427.638 455.719C427.511 455.899 427.31 455.996 427.104 455.996M434.083 444.804C433.978 444.804 433.871 444.779 433.773 444.725C433.455 444.553 433.339 444.158 433.511 443.844C434.56 441.923 435.555 439.973 436.497 438.002C436.609 437.767 436.843 437.63 437.087 437.63C437.181 437.63 437.276 437.651 437.367 437.694C437.693 437.848 437.831 438.235 437.675 438.559C436.723 440.553 435.717 442.523 434.657 444.464C434.539 444.68 434.315 444.804 434.083 444.804M439.774 432.907C439.692 432.907 439.607 432.892 439.526 432.858C439.193 432.72 439.035 432.341 439.172 432.009C440.014 429.988 440.803 427.947 441.544 425.889C441.64 425.624 441.891 425.459 442.158 425.459C442.231 425.459 442.306 425.472 442.379 425.497C442.717 425.618 442.894 425.989 442.773 426.327C442.024 428.405 441.227 430.466 440.377 432.506C440.273 432.757 440.031 432.907 439.774 432.907M444.249 420.504C444.185 420.504 444.12 420.495 444.056 420.474C443.712 420.37 443.519 420.006 443.624 419.663C444.271 417.569 444.871 415.464 445.426 413.35C445.502 413.056 445.767 412.862 446.057 412.862C446.111 412.862 446.167 412.87 446.223 412.885C446.57 412.975 446.779 413.329 446.688 413.677C446.13 415.81 445.524 417.934 444.872 420.046C444.786 420.325 444.528 420.504 444.249 420.504M447.597 407.751C447.551 407.751 447.504 407.746 447.457 407.736C447.106 407.66 446.881 407.314 446.959 406.963C447.426 404.82 447.852 402.671 448.233 400.521C448.29 400.205 448.564 399.985 448.875 399.985C448.914 399.985 448.952 399.988 448.99 399.994C449.344 400.056 449.581 400.394 449.518 400.747C449.134 402.914 448.705 405.079 448.233 407.239C448.167 407.544 447.896 407.751 447.597 407.751M449.908 394.771C449.88 394.771 449.849 394.77 449.817 394.765C449.462 394.716 449.212 394.389 449.261 394.033C449.566 391.855 449.829 389.68 450.052 387.51H450.053C450.087 387.177 450.371 386.928 450.701 386.928C450.723 386.928 450.745 386.929 450.767 386.931C451.126 386.967 451.388 387.286 451.351 387.644C451.125 389.828 450.86 392.019 450.554 394.211C450.509 394.536 450.229 394.771 449.908 394.771M451.265 381.657C451.25 381.657 451.235 381.657 451.22 381.656C450.86 381.632 450.589 381.322 450.614 380.964C450.764 378.763 450.876 376.576 450.952 374.401C450.964 374.05 451.254 373.774 451.603 373.774C451.611 373.774 451.619 373.774 451.627 373.774C451.987 373.787 452.268 374.088 452.256 374.447C452.18 376.634 452.067 378.838 451.915 381.052C451.891 381.395 451.606 381.657 451.265 381.657M451.724 368.481C451.364 368.481 451.072 368.189 451.072 367.83L451.074 367.438C451.074 365.359 451.04 363.298 450.978 361.26C450.967 360.901 451.25 360.603 451.611 360.591C451.617 360.591 451.624 360.591 451.63 360.591C451.982 360.591 452.272 360.869 452.282 361.22C452.346 363.271 452.378 365.346 452.378 367.438V367.834C452.376 368.191 452.084 368.481 451.724 368.481ZM451.321 355.305C450.98 355.305 450.693 355.04 450.67 354.697C450.53 352.478 450.355 350.293 450.147 348.147C450.114 347.79 450.377 347.473 450.734 347.439C450.756 347.436 450.777 347.436 450.798 347.436C451.129 347.436 451.415 347.687 451.447 348.023C451.655 350.182 451.832 352.383 451.973 354.615C451.995 354.973 451.722 355.281 451.362 355.304C451.349 355.305 451.335 355.305 451.321 355.305ZM450.052 342.186C449.728 342.186 449.448 341.948 449.405 341.62C449.108 339.356 448.8 337.184 448.483 335.106C448.431 334.751 448.674 334.42 449.031 334.366C449.065 334.362 449.097 334.358 449.13 334.358C449.446 334.358 449.725 334.59 449.774 334.911C450.092 336.998 450.401 339.18 450.699 341.453C450.745 341.808 450.493 342.134 450.136 342.18C450.108 342.185 450.079 342.186 450.052 342.186M448.065 329.151C447.753 329.151 447.479 328.929 447.423 328.613C447.021 326.321 446.613 324.167 446.208 322.151C446.138 321.798 446.366 321.455 446.72 321.386C446.763 321.378 446.806 321.373 446.849 321.373C447.154 321.373 447.426 321.587 447.488 321.895C447.895 323.922 448.305 326.088 448.708 328.391C448.77 328.743 448.533 329.08 448.177 329.142C448.14 329.148 448.102 329.151 448.065 329.151M445.457 316.228C445.161 316.228 444.892 316.025 444.823 315.723C444.268 313.321 443.733 311.196 443.237 309.346C443.144 309 443.352 308.644 443.699 308.552C443.755 308.536 443.812 308.53 443.868 308.53C444.157 308.53 444.42 308.721 444.498 309.011C444.997 310.876 445.536 313.016 446.094 315.432C446.175 315.782 445.956 316.131 445.604 316.21C445.555 316.221 445.507 316.228 445.457 316.228" fill="#AAE2D8"/>
<path d="M366.366 499.22V474.533H376.909V494.803C373.256 496.699 369.549 498.154 366.366 499.22Z" fill="#B1E4DB"/>
<path d="M331.139 474.533H300.646L303.816 472.285L323.897 459.396L364.201 456.615C366.366 447.663 372.262 447.365 381.253 446.428C384.83 446.064 386.2 441.839 386.2 435.487C386.2 432.547 385.906 429.15 385.403 425.472C384.24 417.102 381.997 407.266 379.622 397.964C377.901 391.168 376.66 384.529 375.839 378.124C374.859 370.626 374.43 363.466 374.389 356.723C380.354 387.674 393.322 437.321 391.482 443.037C389.002 450.754 373.517 449.373 371.637 455.081C369.286 462.22 367.555 463.301 363.391 463.301C362.487 463.301 361.468 463.249 360.305 463.198C359.139 463.147 357.829 463.096 356.343 463.096C354.542 463.096 352.484 463.171 350.109 463.411C341.341 464.295 334.974 469.894 331.139 474.533" fill="#74BAAF"/>
<path d="M420.344 474.533H376.909C376.909 474.533 413.807 463.722 413.807 390.857C413.807 389.92 413.807 388.998 413.794 388.075C413.435 341.8 403.979 315.247 391.99 306.152C391.532 305.806 391.073 305.487 390.609 305.19C390.435 305.079 390.261 304.971 390.086 304.868C394.118 302.491 399.48 300.216 406.565 298.645C404.438 301.698 402.219 306.284 403.265 311.183C405.131 319.849 426.215 353.191 418.152 406.604C412.332 445.142 414.263 465.19 420.344 474.533M414.157 469.704C413.995 469.704 413.832 469.764 413.706 469.883C412.928 470.624 412.134 471.356 411.328 472.077C411.058 472.317 411.036 472.728 411.277 472.994C411.406 473.137 411.584 473.21 411.763 473.21C411.918 473.21 412.074 473.156 412.198 473.045C413.016 472.315 413.819 471.574 414.608 470.823C414.868 470.575 414.878 470.164 414.629 469.904C414.5 469.77 414.328 469.704 414.157 469.704Z" fill="#B1E4DB"/>
<path d="M413.806 390.857C413.806 389.92 413.806 388.998 413.794 388.075C413.806 388.998 413.806 389.92 413.806 390.857ZM390.609 305.19C390.435 305.079 390.261 304.971 390.086 304.868C390.261 304.971 390.435 305.079 390.609 305.19Z" fill="#74BAAF"/>
<path d="M411.763 473.21C411.584 473.21 411.406 473.137 411.277 472.994C411.036 472.728 411.058 472.317 411.328 472.077C412.134 471.356 412.928 470.624 413.706 469.883C413.832 469.764 413.995 469.704 414.157 469.704C414.328 469.704 414.5 469.77 414.629 469.904C414.878 470.164 414.868 470.575 414.608 470.823C413.819 471.574 413.016 472.315 412.198 473.045C412.074 473.156 411.917 473.21 411.763 473.21Z" fill="#9CDDD2"/>
<path d="M182.435 291.992C180.766 298.034 173.106 309.754 166.113 322.305C158.467 335.998 151.63 350.67 154.305 359.985C154.97 362.323 155.27 364.038 155.27 365.273C155.297 369.327 152.204 368.067 149.086 365.767C145.903 363.416 142.679 359.985 142.679 359.985L142.914 341.924C142.914 341.924 132.633 332.517 141.076 311.937C141.61 310.637 142.223 309.286 142.914 307.882C154.54 284.496 171.971 259.95 155.466 252.999C178.26 251.609 185.932 279.349 182.435 291.992Z" fill="#50C4C0"/>
<path d="M155.474 253.002C155.472 253.002 155.469 253.002 155.466 253C155.469 253.002 155.471 253.002 155.474 253.002Z" fill="#E4F6F3"/>
<path d="M147.065 329.974C146.754 329.742 146.457 329.482 146.177 329.196C147.248 326.259 148.482 323.394 149.749 320.55C153.318 312.627 157.328 304.934 161.05 297.113C162.909 293.203 164.707 289.263 166.269 285.232C167.767 281.2 169.207 277.044 169.349 272.736L169.271 271.135L169.008 269.54C168.867 268.467 168.585 267.427 168.298 266.387C168.054 265.335 167.586 264.354 167.221 263.339C166.733 262.379 166.298 261.387 165.678 260.499C163.385 256.869 159.727 253.981 155.474 253.002C159.739 253.929 163.457 256.777 165.815 260.41C166.452 261.299 166.903 262.293 167.407 263.258C167.788 264.274 168.274 265.26 168.533 266.319C168.837 267.364 169.134 268.411 169.288 269.489L169.574 271.097L169.674 272.737C169.583 277.133 168.18 281.329 166.727 285.402C165.207 289.474 163.454 293.447 161.641 297.389C158.011 305.269 154.098 313.012 150.645 320.943C149.362 323.921 148.118 326.921 147.065 329.974" fill="#3DA7A6"/>
<path d="M171.972 328.489C165.004 346.784 171.972 360.661 161.508 362.636C156.719 363.546 154.605 360.01 153.732 355.905C152.688 351.046 153.38 345.393 153.38 345.393C153.38 345.393 155.154 340.872 158.884 336.481C161.926 332.907 166.244 329.426 171.972 328.489" fill="#389A9A"/>
<path d="M147.677 351.162C147.637 355.424 146.673 359.036 144.69 360.933C144.493 361.13 144.297 361.298 144.114 361.441C139.169 365.43 136.013 358.128 136.013 358.128C136.013 358.128 122.861 351.67 116.337 338.56C111.339 328.489 110.23 314.483 121.986 296.475C123.709 309.298 130.767 318.031 137.76 326.319V326.334C138.635 327.372 139.496 328.386 140.357 329.412C145.198 335.195 147.742 344.082 147.677 351.162" fill="#BBE8E0"/>
<path d="M121.981 296.483C121.981 296.481 121.981 296.478 121.982 296.476C121.981 296.478 121.981 296.481 121.981 296.483C121.981 296.483 121.979 296.484 121.981 296.483Z" fill="#E4F6F3"/>
<path d="M143.37 355.866H142.099C142.066 353.743 141.59 351.633 140.707 349.674C139.595 347.169 137.937 344.906 136.169 342.74C132.62 338.414 128.583 334.338 125.704 329.409C122.705 324.548 121.256 318.896 120.77 313.289C120.35 307.66 120.736 301.975 121.981 296.483C121.981 296.483 121.98 296.484 121.981 296.483C120.843 301.996 120.57 307.678 121.095 313.259C121.688 318.826 123.226 324.359 126.263 329.072C129.183 333.865 133.242 337.81 136.923 342.118C138.755 344.278 140.514 346.572 141.747 349.206C142.73 351.27 143.293 353.559 143.37 355.866Z" fill="#95DBCF"/>
<path d="M171.968 328.499C171.968 328.497 171.968 328.499 171.968 328.497C171.971 328.496 171.973 328.493 171.976 328.49C171.973 328.493 171.97 328.496 171.968 328.499" fill="#E9F8F5"/>
<path d="M155.839 355.866H154.638C156.044 351.27 158.311 347.007 160.819 342.983C162.437 340.388 164.225 337.906 166.081 335.484C167.947 333.076 169.892 330.726 171.968 328.497C171.968 328.499 171.968 328.497 171.968 328.499C169.972 330.798 168.116 333.212 166.342 335.678C164.579 338.156 162.891 340.688 161.377 343.318C159.086 347.295 157.053 351.492 155.839 355.866Z" fill="#2E7D80"/>
<path d="M167.744 360.441L163.282 387.725C163.06 388.869 162.056 389.701 160.881 389.701H133.077C131.903 389.701 130.897 388.869 130.676 387.725L127.049 365.571L126.214 360.441C125.94 358.947 127.088 357.567 128.615 357.567H165.343C166.87 357.567 168.018 358.947 167.744 360.441" fill="#BBE8E0"/>
<path d="M171.971 366.002H121.986L123.305 358.569C123.592 357.01 124.948 355.866 126.541 355.866H167.431C169.01 355.866 170.379 357.01 170.653 358.569L171.971 366.002Z" fill="#87C5B8"/>
<path d="M158.883 336.482C159.937 334.115 161.107 331.71 162.346 329.305C161.11 331.709 159.942 334.112 158.883 336.481C158.883 336.481 158.883 336.481 158.883 336.482Z" fill="#E9F8F5"/>
<path d="M153.718 355.866H147.186C147.5 354.445 147.661 352.854 147.677 351.162C147.678 351.079 147.678 350.997 147.678 350.913C147.68 346.699 146.771 341.872 145.013 337.451C145.284 335.968 145.646 334.493 146.084 333.036C146.386 332.009 146.716 330.988 147.065 329.974C147.827 330.542 148.684 330.937 149.647 331.114C150.054 331.188 150.468 331.223 150.892 331.223C155.692 331.223 161.557 326.699 166.113 322.305C164.818 324.621 163.549 326.964 162.346 329.305C161.107 331.71 159.937 334.115 158.883 336.482C155.153 340.872 153.379 345.393 153.379 345.393C153.376 345.415 152.689 351.028 153.718 355.866M144.198 335.562C143.146 333.311 141.863 331.21 140.357 329.412C139.496 328.386 138.635 327.372 137.76 326.334V326.319C137.865 322.33 138.778 317.549 141.076 311.937C141.375 317.144 142.456 325.405 146.177 329.196C145.753 330.355 145.356 331.526 144.991 332.711C144.696 333.649 144.43 334.6 144.198 335.562Z" fill="#43BAB4"/>
<path d="M145.013 337.451C144.76 336.811 144.487 336.181 144.199 335.562C144.43 334.6 144.696 333.649 144.991 332.711C145.356 331.526 145.753 330.355 146.177 329.196C146.458 329.482 146.754 329.742 147.065 329.974C146.716 330.988 146.386 332.009 146.085 333.036C145.646 334.493 145.284 335.968 145.013 337.451Z" fill="#348E91"/>
<path d="M153.379 345.393C153.379 345.393 155.154 340.872 158.884 336.482C158.884 336.481 158.884 336.481 158.884 336.481C155.154 340.872 153.379 345.393 153.379 345.393" fill="#2E7D80"/>
<path d="M147.186 355.866H147.181C147.493 354.451 147.651 352.852 147.677 351.162C147.661 352.854 147.5 354.445 147.186 355.866ZM147.678 350.913C147.682 343.874 145.141 335.127 140.357 329.412C139.496 328.386 138.635 327.372 137.76 326.334C138.635 327.372 139.496 328.386 140.357 329.412C141.863 331.21 143.146 333.311 144.198 335.562C144.487 336.181 144.76 336.811 145.013 337.451C146.771 341.872 147.68 346.699 147.678 350.913" fill="#AAE2D8"/>
<path d="M133.076 389.701C131.903 389.701 130.897 388.869 130.676 387.725L127.114 366.002H127.119L130.676 387.725C130.897 388.869 131.903 389.701 133.076 389.701Z" fill="#E9F8F5"/>
<path d="M149.673 389.701H133.077C131.904 389.701 130.898 388.869 130.676 387.725L127.12 366.002H141.454C141.102 369.042 140.671 374.72 141.754 379.125C142.602 382.619 145.682 387.115 149.673 389.701" fill="#AAE2D8"/>
<path d="M307.822 105.222C310.482 105.222 311.11 103.439 311.11 101.85C311.11 100.455 310.965 99.1037 310.822 97.7559C310.677 96.3097 310.53 95.0096 310.53 93.5158C310.53 89.1804 313.192 87.35 316.626 87.35H317.206V89.855H316.479C314.449 89.855 313.626 91.2996 313.626 93.4681C313.626 94.7683 313.773 95.9732 313.918 97.1289C314.013 98.3814 314.158 99.5371 314.158 100.694C314.208 104.452 312.901 105.752 310.822 106.331V106.427C312.901 107.054 314.208 108.354 314.158 112.161C314.158 113.364 314.013 114.569 313.918 115.772C313.773 116.977 313.626 118.182 313.626 119.482C313.626 121.651 314.351 123.143 316.53 123.143H317.206V125.649H316.578C313.385 125.649 310.53 124.059 310.53 119.482C310.53 118.038 310.677 116.591 310.822 115.194C310.965 113.797 311.11 112.4 311.11 111.051C311.11 109.511 310.482 107.632 307.822 107.632V105.222" fill="#343573"/>
<path d="M357.139 107.632C354.478 107.632 353.85 109.511 353.85 111.051C353.85 112.4 353.995 113.797 354.138 115.194C354.284 116.591 354.43 118.038 354.43 119.482C354.43 124.059 351.575 125.649 348.382 125.649H347.752V123.143H348.43C350.609 122.903 351.334 121.651 351.334 119.482C351.334 118.182 351.188 116.977 351.091 115.772C350.945 114.569 350.802 113.364 350.802 112.161C350.753 108.354 352.058 107.054 354.138 106.427V106.331C352.058 105.752 350.753 104.452 350.802 100.694C350.802 99.5371 350.945 98.3814 351.091 97.1289C351.188 95.9732 351.334 94.7683 351.334 93.4681C351.334 91.2996 350.51 90.0963 348.479 89.855H347.752V87.35H348.334C351.768 87.35 354.43 89.1804 354.43 93.5158C354.43 95.0096 354.284 96.3097 354.138 97.7559C353.995 99.1037 353.85 100.455 353.85 101.85C353.85 103.439 354.478 105.222 357.139 105.222V107.632" fill="#343573"/>
<path d="M340.539 111.134V101.866L332.479 97.2321L324.421 101.866V111.134L332.479 115.767L340.539 111.134Z" fill="#F14E25"/>
<path d="M401.171 157.307C393.598 153.551 384.486 155.034 378.5 160.996C371.109 168.356 370.864 180.152 377.719 187.834L374.765 187.485C374.408 187.442 374.082 187.698 374.041 188.053C373.998 188.409 374.254 188.733 374.61 188.776L379.11 189.307C379.29 189.33 379.459 189.276 379.592 189.174C379.722 189.071 379.815 188.918 379.835 188.739L380.354 184.404C380.397 184.048 380.142 183.726 379.783 183.683C379.426 183.64 379.101 183.894 379.058 184.251L378.728 187.012C372.292 179.84 372.509 168.8 379.423 161.915C385.013 156.348 393.519 154.964 400.591 158.469C400.913 158.631 401.305 158.498 401.466 158.177C401.626 157.856 401.495 157.467 401.171 157.307" fill="#F14E25"/>
<path d="M384.236 193.26C391.81 197.018 400.922 195.535 406.91 189.573C414.3 182.211 414.545 170.416 407.689 162.733L410.645 163.084C411.002 163.127 411.325 162.871 411.368 162.516C411.411 162.158 411.156 161.836 410.798 161.793L406.297 161.261C406.119 161.239 405.948 161.293 405.816 161.395C405.685 161.498 405.594 161.65 405.574 161.83L405.056 166.165C405.013 166.521 405.269 166.843 405.625 166.886C405.983 166.929 406.309 166.673 406.35 166.318L406.68 163.557C413.117 170.729 412.9 181.768 405.987 188.653C400.398 194.219 391.89 195.605 384.817 192.098C384.495 191.938 384.104 192.07 383.943 192.39C383.782 192.713 383.914 193.101 384.236 193.26" fill="#F14E25"/>
<path d="M558.728 229.734H440.647C438.495 229.734 436.751 227.996 436.751 225.853C436.751 223.71 438.495 221.971 440.647 221.971H558.728C560.882 221.971 562.627 223.71 562.627 225.853C562.627 227.996 560.882 229.734 558.728 229.734Z" fill="#F14E25"/>
<path d="M516.564 246.603H440.647C438.495 246.603 436.751 244.866 436.751 242.723C436.751 240.578 438.495 238.841 440.647 238.841H516.564C518.717 238.841 520.46 240.578 520.46 242.723C520.46 244.866 518.717 246.603 516.564 246.603Z" fill="#50C4C0"/>
<path d="M516.564 264.716H440.647C438.495 264.716 436.751 262.977 436.751 260.834C436.751 258.691 438.495 256.955 440.647 256.955H516.564C518.717 256.955 520.46 258.691 520.46 260.834C520.46 262.977 518.717 264.716 516.564 264.716Z" fill="#50C4C0"/>
<path d="M140.043 165.249H78.7062C76.5542 165.249 74.8086 163.512 74.8086 161.369C74.8086 159.225 76.5542 157.488 78.7062 157.488H140.043C142.195 157.488 143.939 159.225 143.939 161.369C143.939 163.512 142.195 165.249 140.043 165.249Z" fill="#50C4C0"/>
<path d="M116.885 182.119H78.7062C76.5542 182.119 74.8086 180.383 74.8086 178.239C74.8086 176.095 76.5542 174.358 78.7062 174.358H116.885C119.037 174.358 120.783 176.095 120.783 178.239C120.783 180.383 119.037 182.119 116.885 182.119Z" fill="#F14E25"/>
<path d="M116.885 200.232H78.7062C76.5542 200.232 74.8086 198.494 74.8086 196.351C74.8086 194.208 76.5542 192.47 78.7062 192.47H116.885C119.037 192.47 120.783 194.208 120.783 196.351C120.783 198.494 119.037 200.232 116.885 200.232Z" fill="#F14E25"/>
<path d="M505.531 446.585C501.708 457.629 497.141 467.27 492.365 475.974C475.861 506.001 456.693 525.103 455.976 553.102C455.976 553.102 450.027 526.726 454.803 496.673C457.478 479.795 463.531 461.76 475.914 446.585C510.371 404.384 505.269 366.002 505.269 366.002C505.269 366.002 522.545 397.483 505.531 446.585" fill="#389A9A"/>
<path d="M505.405 366.259C505.338 366.128 505.295 366.048 505.277 366.016C505.322 366.096 505.364 366.177 505.405 366.259Z" fill="#E9F8F5"/>
<path d="M469.988 489.798C471.193 486.72 472.559 483.705 474.053 480.76C475.539 477.687 477.313 474.771 479.047 471.837L484.595 463.306C488.13 457.57 491.113 451.487 493.624 445.215C496.155 438.951 498.287 432.522 500.075 426C501.883 419.481 503.361 412.869 504.523 406.203C505.693 399.54 506.546 392.814 506.968 386.061C507.171 382.684 507.265 379.297 507.118 375.915C507.033 374.226 506.928 372.534 506.651 370.864C506.37 369.204 506.061 367.511 505.269 366.002C505.272 366.006 505.275 366.011 505.277 366.017C505.294 366.049 505.337 366.129 505.404 366.259C506.125 367.691 506.445 369.286 506.734 370.851C507.038 372.52 507.172 374.215 507.287 375.906C507.489 379.294 507.45 382.691 507.303 386.077C507.008 392.857 506.203 399.607 505.108 406.303C504.016 412.999 502.607 419.647 500.864 426.211C499.139 432.779 497.07 439.262 494.59 445.596C492.132 451.94 489.191 458.109 485.671 463.963L480.173 472.524C478.465 475.431 476.717 478.324 475.258 481.364C474.023 483.813 472.878 486.312 471.843 488.852C471.223 489.172 470.603 489.488 469.988 489.798" fill="#2E7D80"/>
<path d="M453.371 533.239C453.114 529.532 452.945 525.427 452.947 521.036C452.947 513.57 453.436 505.273 454.802 496.673C459.287 494.849 464.534 492.543 469.988 489.798C468.705 493.076 467.601 496.427 466.72 499.842C465.84 503.145 465.225 506.522 464.885 509.932C464.703 511.854 464.581 513.773 464.597 515.707C460.272 521.371 456.441 527.216 453.371 533.239ZM465.972 513.934C466.023 512.642 466.125 511.349 466.259 510.073C466.631 506.744 467.227 503.434 468.078 500.185C469.063 496.327 470.337 492.544 471.843 488.852C478.835 485.232 486.058 480.911 492.365 475.974C487.279 485.226 481.942 493.439 476.969 501.196C473.104 505.333 469.401 509.576 465.972 513.934" fill="#2E7D80"/>
<path d="M464.597 515.707C464.581 513.774 464.704 511.854 464.886 509.932C465.225 506.522 465.84 503.145 466.72 499.842C467.602 496.427 468.705 493.076 469.988 489.798C470.604 489.488 471.224 489.172 471.844 488.852C470.338 492.544 469.064 496.327 468.079 500.185C467.227 503.434 466.631 506.744 466.26 510.073C466.126 511.349 466.024 512.642 465.973 513.934C465.511 514.521 465.05 515.117 464.597 515.707Z" fill="#235A5D"/>
<path d="M465.544 582.743C465.544 582.743 453.492 562.222 482.016 536.9C510.539 511.576 532.863 478.085 528.521 450.989C501.239 482.556 428.689 527.315 449.151 582.74L465.544 582.743Z" fill="#50C4C0"/>
<path d="M457.989 583.452C457.739 583.452 457.5 583.308 457.393 583.065L457.39 583.059C457.344 582.954 457.299 582.848 457.254 582.741H458.271H458.638C458.665 583.013 458.517 583.281 458.252 583.397C458.166 583.435 458.077 583.452 457.989 583.452" fill="white"/>
<path d="M458.638 582.741H457.254C454.708 576.657 453.956 570.008 454.2 563.526C454.439 556.901 455.794 550.378 457.727 544.078C461.684 531.483 468.159 519.746 476.387 509.459C480.504 504.317 485.113 499.551 490.185 495.338C495.275 491.165 500.367 487.018 505.007 482.357C509.685 477.747 514.083 472.853 518.092 467.651C522.058 462.428 525.748 456.945 528.521 450.989C525.798 456.969 522.149 462.488 518.221 467.749C514.252 472.99 509.885 477.93 505.235 482.586C500.632 487.293 495.542 491.504 490.501 495.713C485.489 499.942 480.947 504.719 476.897 509.864C468.805 520.152 462.475 531.868 458.663 544.363C456.801 550.611 455.521 557.062 455.341 563.565C455.15 570.038 455.982 576.628 458.585 582.541C458.614 582.607 458.631 582.675 458.638 582.741Z" fill="#43BAB4"/>
<path d="M99.5024 499.874C99.1454 499.874 98.8552 499.585 98.8521 499.229V499.219C98.8552 498.931 98.8552 498.642 98.8552 498.354C99.072 498.643 99.2888 498.932 99.5056 499.219C99.6379 499.394 99.7671 499.567 99.8994 499.742C99.791 499.824 99.6555 499.874 99.5088 499.874C99.5072 499.874 99.5056 499.874 99.5024 499.874Z" fill="white"/>
<path d="M99.8992 499.742C99.7669 499.567 99.6378 499.394 99.5055 499.22C99.5055 499.22 99.7733 498.334 100.111 496.781C100.143 497.594 100.157 498.408 100.157 499.221C100.159 499.432 100.057 499.623 99.8992 499.742ZM99.5055 499.22C99.2887 498.932 99.0719 498.643 98.8551 498.354C98.8551 498.327 98.8535 498.3 98.8535 498.273L99.5055 499.22Z" fill="#E9F8F5"/>
<path d="M509.143 605.279H112.83C106.579 605.279 101.513 600.236 101.513 594.011C101.513 587.786 106.579 582.74 112.83 582.74H509.143C515.394 582.74 520.46 587.786 520.46 594.011C520.46 600.236 515.394 605.279 509.143 605.279Z" fill="#EEF9F8"/>
</svg>
