<svg width="400" height="132" viewBox="0 0 400 132" fill="none" xmlns="http://www.w3.org/2000/svg">
<path fill-rule="evenodd" clip-rule="evenodd" d="M142.231 16.125C141.808 17.019 141.029 18.688 140.499 19.833C138.91 23.272 138.333 24.513 137.631 26C137.263 26.779 136.561 28.288 136.072 29.353C135.582 30.418 134.728 32.246 134.174 33.414C133.62 34.583 133.167 35.561 133.167 35.587C133.167 35.614 132.642 36.737 132 38.083C131.358 39.43 130.833 40.552 130.833 40.578C130.833 40.603 129.926 42.564 128.816 44.937C127.707 47.309 126.177 50.6 125.418 52.25C124.658 53.9 123.663 56.038 123.207 57C122.75 57.962 122.187 59.163 121.955 59.667C121.723 60.171 121.189 61.317 120.767 62.215C120.345 63.112 120 63.872 120 63.903C120 63.935 119.523 64.963 118.94 66.188C118.357 67.414 117.689 68.829 117.457 69.333C117.038 70.242 116.392 71.633 115.232 74.125C114.06 76.646 113.615 77.599 113 78.917C112.657 79.65 112.133 80.775 111.834 81.417C111.536 82.058 110.888 83.436 110.396 84.479C109.903 85.522 109.5 86.402 109.5 86.436C109.5 86.469 108.975 87.591 108.333 88.928C107.692 90.266 107.167 91.383 107.167 91.41C107.167 91.437 106.801 92.238 106.353 93.188C104.314 97.522 104 98.197 104 98.248C104 98.277 103.475 99.403 102.833 100.75C102.192 102.097 101.667 103.22 101.667 103.246C101.667 103.272 101.3 104.071 100.852 105.022C100.404 105.972 99.85 107.162 99.621 107.667C99.391 108.171 98.587 109.896 97.833 111.5C95.629 116.194 95.48 116.535 95.59 116.645C95.726 116.782 113.579 116.879 114.304 116.748C114.886 116.642 114.955 116.526 116.5 113.083C116.834 112.338 117.767 110.276 118.951 107.667C119.18 107.162 120.078 105.175 120.948 103.25C122.583 99.629 122.828 99.095 123.995 96.598C124.376 95.782 125.201 93.982 125.827 92.598C127.301 89.341 127.553 88.785 129.044 85.5C129.731 83.987 130.461 82.375 130.667 81.917C131.25 80.619 134.32 73.847 134.747 72.917C135.256 71.806 137.529 66.799 138 65.75C138.386 64.89 140.464 60.311 141.404 58.25C141.697 57.608 142.157 56.582 142.426 55.97C142.954 54.773 143.417 54.429 143.657 55.055C143.734 55.254 144.037 55.942 144.332 56.583C144.788 57.576 147.448 63.427 148.538 65.833C148.725 66.246 149.101 67.071 149.373 67.667C149.646 68.262 150.171 69.425 150.54 70.25C150.909 71.075 151.538 72.452 151.938 73.311C152.339 74.169 152.667 74.899 152.667 74.932C152.667 74.966 152.957 75.614 153.311 76.372C153.666 77.13 154.125 78.125 154.331 78.583C154.538 79.042 155.064 80.204 155.5 81.167C155.936 82.129 156.461 83.292 156.667 83.75C156.873 84.208 157.585 85.783 158.251 87.25C158.917 88.717 159.629 90.292 159.833 90.75C160.038 91.208 160.496 92.207 160.852 92.968C161.209 93.73 161.5 94.38 161.5 94.412C161.5 94.445 161.866 95.247 162.314 96.194C162.762 97.141 164.269 100.429 165.662 103.5C168.31 109.336 168.348 109.419 170.344 113.811C171.301 115.918 171.674 116.573 171.98 116.69C172.419 116.858 190.741 116.815 190.91 116.645C191.013 116.543 190.786 116.008 189.29 112.833C188.88 111.962 188.355 110.837 188.125 110.333C187.894 109.829 187.443 108.854 187.122 108.167C186.801 107.479 186.295 106.392 185.998 105.75C185.701 105.108 185.139 103.908 184.749 103.083C184.358 102.258 183.852 101.171 183.622 100.667C182.993 99.284 182.28 97.741 181.541 96.167C181.176 95.388 180.634 94.225 180.336 93.583C180.039 92.942 179.511 91.817 179.163 91.083C178.815 90.35 178.082 88.775 177.533 87.583C176.412 85.146 175.977 84.212 173.935 79.858C173.146 78.176 172.5 76.777 172.5 76.749C172.5 76.721 171.975 75.597 171.333 74.25C170.692 72.903 170.167 71.781 170.167 71.755C170.167 71.729 169.762 70.855 169.268 69.811C168.775 68.768 167.432 65.89 166.286 63.416C165.139 60.941 163.885 58.242 163.499 57.417C163.113 56.592 162.327 54.904 161.752 53.667C161.176 52.429 160.442 50.854 160.12 50.167C159.401 48.631 158.593 46.891 157.334 44.167C156.804 43.021 156.071 41.446 155.704 40.667C155.338 39.887 154.794 38.725 154.497 38.083C154.2 37.442 153.657 36.279 153.292 35.5C152.927 34.721 152.42 33.633 152.167 33.083C151.623 31.902 150.734 29.981 150.085 28.583C149.829 28.033 149.143 26.581 148.56 25.355C147.977 24.13 147.5 23.101 147.5 23.07C147.5 23.038 147.05 22.063 146.5 20.903C145.95 19.743 145.5 18.773 145.5 18.747C145.5 18.387 143.442 14.5 143.251 14.5C143.096 14.5 142.704 15.125 142.231 16.125ZM51.917 18.336C51.458 18.414 50.633 18.524 50.083 18.581C48.681 18.727 45.863 19.16 45.167 19.336C43.876 19.663 42.548 20.043 41.911 20.265C41.541 20.394 41.153 20.5 41.048 20.5C40.943 20.5 40.383 20.715 39.803 20.978C39.224 21.24 38.344 21.634 37.847 21.853C33.388 23.815 29.93 26.486 26.403 30.691C21.721 36.273 19.773 46.586 21.926 54.396C23.943 61.711 29.471 67.348 38.083 70.871C42.371 72.626 47.077 73.999 52.5 75.079C53.279 75.234 54.217 75.428 54.583 75.51C55.3 75.671 56.789 75.958 58 76.168C58.982 76.338 60.668 76.731 61.917 77.082C62.467 77.236 63.142 77.424 63.417 77.5C67.706 78.678 70.804 80.293 73.046 82.52C76.994 86.44 75.827 93.1 70.583 96.576C68.601 97.89 67.404 98.388 64.333 99.176C61.089 100.009 54.09 100.185 50.75 99.518C50.2 99.408 49.337 99.236 48.833 99.136C41.956 97.772 35.426 93.993 29.372 87.875C27.79 86.275 26.402 85.002 26.289 85.046C26.176 85.09 25.714 85.791 25.263 86.604C24.812 87.418 24.296 88.346 24.116 88.667C23.937 88.987 23.247 90.225 22.585 91.417C21.922 92.608 21.169 93.958 20.911 94.417C19.116 97.609 17.5 100.601 17.5 100.731C17.5 100.874 18.178 101.841 18.577 102.268C21.784 105.698 23.736 107.337 27.667 109.9C30.584 111.802 34.957 113.907 38.417 115.075C40.163 115.664 41.972 116.225 42.5 116.342C42.821 116.412 43.646 116.595 44.333 116.749C50.334 118.085 59.819 118.204 65.5 117.013C69.119 116.255 69.028 116.278 71.375 115.569C71.856 115.424 72.4 115.238 72.583 115.157C72.767 115.076 73.323 114.853 73.819 114.663C85.937 110.013 93.083 99.843 93.083 87.25C93.083 74.572 86.688 66.683 72.417 61.753C71.958 61.594 71.433 61.406 71.25 61.333C69.653 60.704 64.171 59.224 61.083 58.59C59.884 58.344 58.73 58.098 56.75 57.667C54.477 57.172 53.488 56.943 52.75 56.74C52.292 56.614 51.354 56.365 50.667 56.186C48.672 55.668 46.822 55.071 45.833 54.627C45.329 54.4 44.767 54.162 44.583 54.098C36.323 51.19 37.371 40.29 46.172 37.584C46.673 37.43 47.233 37.243 47.417 37.17C49.704 36.254 57.74 35.738 61 36.298C68.66 37.612 73.518 40.098 79.471 45.749C81.176 47.368 81.003 47.42 82.28 44.917C82.7 44.092 83.248 43.042 83.496 42.583C85.169 39.493 86.265 37.432 87.881 34.333C88.526 33.096 89.155 31.935 89.277 31.755C89.674 31.169 89.522 30.876 88.208 29.688C84.173 26.039 78.686 22.742 74.076 21.196C73.523 21.01 72.885 20.785 72.66 20.696C72.434 20.607 71.762 20.405 71.167 20.248C70.571 20.091 69.896 19.902 69.667 19.829C68.721 19.525 66.316 19.088 62.25 18.482C60.649 18.243 53.092 18.137 51.917 18.336ZM197.875 19.276C197.709 19.344 197.667 29.244 197.667 67.994V116.628L198.042 116.728C198.531 116.859 214.635 116.859 215.125 116.728L215.5 116.628V98.392C215.5 82.62 215.533 80.144 215.742 80.064C216.058 79.942 215.924 79.808 220.75 85.081C221.667 86.082 222.836 87.355 223.348 87.909C224.198 88.828 225.056 89.76 230.263 95.423C234.661 100.206 244.4 110.778 245.901 112.4C246.826 113.399 247.709 114.36 247.862 114.535C248.747 115.549 249.713 116.513 249.991 116.662C250.337 116.847 272.446 116.91 273.125 116.728C273.621 116.595 273.605 116.542 272.81 115.667C272.435 115.254 271.107 113.792 269.858 112.417C268.61 111.042 267.242 109.542 266.819 109.083C266.396 108.625 265.164 107.275 264.082 106.083C262.999 104.892 261.806 103.579 261.43 103.167C261.054 102.754 259.588 101.142 258.172 99.583C256.756 98.025 255.287 96.412 254.908 96C254.53 95.587 253.334 94.275 252.251 93.083C251.169 91.892 249.6 90.168 248.766 89.253C247.932 88.337 246.912 87.217 246.5 86.763C245.596 85.768 245.46 85.62 244.496 84.57C243.469 83.453 234.106 73.16 232.985 71.917C232.49 71.367 231.315 70.076 230.375 69.049C228.472 66.969 228.525 67.07 229.042 66.498C229.248 66.27 230.389 64.995 231.578 63.666C232.766 62.337 233.78 61.212 233.829 61.167C233.879 61.121 234.893 59.996 236.082 58.667C237.27 57.337 238.515 55.95 238.848 55.583C239.18 55.217 240.861 53.342 242.582 51.417C244.304 49.492 246.022 47.579 246.402 47.167C246.781 46.754 248.7 44.617 250.666 42.417C252.632 40.217 254.281 38.379 254.33 38.333C254.38 38.287 255.394 37.162 256.583 35.833C257.773 34.504 258.785 33.379 258.832 33.333C258.88 33.287 259.518 32.576 260.251 31.752C260.984 30.927 261.891 29.915 262.268 29.502C262.644 29.088 264.669 26.837 266.766 24.5C268.864 22.162 270.746 20.068 270.948 19.845C271.15 19.622 271.278 19.378 271.231 19.303C271.185 19.228 265.88 19.167 259.442 19.167H247.736L247.062 19.875C246.691 20.265 245.719 21.371 244.902 22.333C244.086 23.296 243.38 24.121 243.333 24.167C243.287 24.212 242.575 25.037 241.75 26C240.925 26.962 240.21 27.787 240.161 27.833C240.086 27.903 238.706 29.512 236.668 31.908C236.438 32.178 235.98 32.703 235.651 33.074C235.321 33.446 233.821 35.181 232.318 36.931C223.901 46.722 217.302 54.354 216.554 55.162C216.171 55.575 215.796 55.852 215.721 55.776C215.645 55.701 215.546 47.451 215.5 37.444L215.417 19.25L206.75 19.221C201.983 19.205 197.99 19.23 197.875 19.276ZM279.279 19.276C279.217 19.338 279.167 41.267 279.167 68.007V116.625L279.687 116.729C280.367 116.865 295.8 116.865 296.479 116.729L297.001 116.625L296.959 67.937L296.917 19.25L288.154 19.207C283.335 19.183 279.341 19.214 279.279 19.276ZM310.611 19.278C310.396 19.493 310.482 36.749 310.7 36.967C310.853 37.12 314.793 37.167 327.408 37.168C348.024 37.171 349.021 37.244 352.534 39.017C356.535 41.037 358.12 46.183 356.053 50.442C355.574 51.43 353.852 53.333 353.437 53.333C353.311 53.333 353.118 53.441 353.008 53.573C352.792 53.834 351.128 54.488 349.667 54.886C349.162 55.023 348.45 55.233 348.083 55.351C347.561 55.52 343.452 55.587 329.167 55.659C319.129 55.709 310.823 55.811 310.708 55.885C310.412 56.077 310.404 73.171 310.7 73.467C310.853 73.62 314.983 73.668 328.242 73.673C344.932 73.678 349.103 73.771 350.912 74.176C358.164 75.799 361.237 79.39 361.246 86.25C361.254 93.516 357.753 97.247 349.597 98.662C348.967 98.772 341.907 98.839 330.014 98.85C319.785 98.859 311.229 98.919 311 98.982L310.583 99.098L310.54 107.861L310.497 116.624L311.019 116.729C311.851 116.895 346.845 116.833 349.333 116.661C353.309 116.386 353.9 116.324 354.833 116.082C355.337 115.951 356.275 115.723 356.917 115.576C357.966 115.334 359.917 114.721 361.5 114.137C368.799 111.441 375.717 103.865 377.831 96.25C378.035 95.517 378.267 94.729 378.347 94.5C379.114 92.298 379.371 84.118 378.769 81.083C377.321 73.785 373.489 67.961 367.932 64.613C367.381 64.282 367.051 63.988 367.157 63.923C367.258 63.86 367.966 63.106 368.731 62.247C377.905 51.944 376.609 34.721 366.026 26.297C362.265 23.303 354.261 20.022 350.656 19.996C350.341 19.994 349.783 19.923 349.417 19.839C346.889 19.258 311.147 18.742 310.611 19.278Z" fill="url(#paint0_linear_411_40)"/>
<defs>
<linearGradient id="paint0_linear_411_40" x1="17" y1="45" x2="379" y2="85" gradientUnits="userSpaceOnUse">
<stop stop-color="#81CAFF"/>
<stop offset="0.473958" stop-color="#95FFD2"/>
<stop offset="1" stop-color="#C68CFF"/>
</linearGradient>
</defs>
</svg>
