<svg width="174" height="174" viewBox="0 0 174 174" fill="none" xmlns="http://www.w3.org/2000/svg">
<path d="M135.938 63.075L131.044 61.4438C131.044 60.3563 131.588 59.2687 131.588 58.1812C135.394 40.2375 132.675 25.5563 124.519 20.6625C116.362 16.3125 103.313 20.6625 90.2625 32.0813C89.175 33.1688 87.5437 34.2563 86.4562 35.3438C85.3687 34.8 84.825 33.7125 83.7375 33.1687C70.6875 21.2062 57.0938 16.3125 48.9375 21.2063C40.7812 25.5563 38.6062 39.6937 41.8687 56.55C42.4125 58.1812 42.4125 59.8125 42.9563 61.4438C40.7813 61.9875 39.15 62.5313 37.5188 63.075C21.2063 68.5125 10.875 77.7563 10.875 86.4563C10.875 95.7 21.75 105.487 38.6062 110.925C39.6937 111.469 41.325 112.012 42.9563 112.012C42.4125 113.644 41.8687 115.819 41.8687 117.45C38.6062 134.306 41.325 147.356 48.9375 152.25C57.0938 157.144 70.6875 152.25 84.2812 140.287C85.3688 139.2 86.4563 138.112 87.5438 137.569C88.6313 138.656 90.2625 140.287 91.8937 141.375C104.944 152.794 117.45 157.144 125.606 152.25C133.763 147.356 136.481 133.219 133.219 115.819C133.219 114.731 132.675 113.1 132.131 111.469C133.219 110.925 134.306 110.925 134.85 110.381C152.25 104.4 163.669 95.1563 163.669 85.9125C163.125 77.7563 152.25 69.0563 135.938 63.075V63.075ZM95.1562 37.5188C106.575 27.7313 116.906 23.925 121.8 26.6438C126.694 29.3625 128.869 41.325 125.606 57.0938C125.606 58.1813 125.062 59.2688 125.062 60.3563C118.537 58.725 111.469 57.6375 104.944 57.0938C101.137 51.6563 96.7875 46.2188 91.8937 40.7813L95.1562 37.5188V37.5188ZM56.0063 94.6125C57.6375 97.3313 58.725 100.05 60.3563 102.769C61.9875 105.488 63.6187 108.206 65.25 110.381C60.3563 109.837 56.0062 109.294 51.1125 108.206C52.2 103.856 53.8313 99.5063 56.0063 94.6125V94.6125ZM56.0063 79.3875C53.8313 75.0375 52.7437 70.6875 51.1125 66.3375C55.4625 65.25 60.3562 64.7063 64.7062 64.1625C63.075 66.8813 61.4438 69.0563 59.8125 71.775C58.725 73.95 57.0938 76.6688 56.0063 79.3875ZM59.2687 87C61.4437 82.65 63.6188 78.8438 65.7938 74.4938C67.9688 70.6875 70.6875 66.3375 73.4062 62.5313C77.7563 61.9875 82.65 61.9875 87.5438 61.9875C92.4375 61.9875 96.7875 61.9875 101.681 62.5313C104.4 66.3375 106.575 70.1438 108.75 74.4938C110.925 78.3 113.1 82.65 115.275 87C113.1 91.35 110.925 95.1562 108.75 99.5062C106.575 103.312 103.856 107.662 101.681 111.469C97.3313 112.012 92.4375 112.012 87.5438 112.012C82.65 112.012 78.3 112.012 73.95 111.469C71.2313 107.662 69.0562 103.856 66.3375 99.5062C63.6187 95.1562 61.4437 91.35 59.2687 87V87ZM113.644 102.769C115.275 100.05 116.906 97.3313 117.994 94.6125C120.169 98.9625 121.8 103.312 122.888 108.206C117.994 109.294 113.644 109.837 108.75 110.381C110.925 107.662 112.556 104.944 113.644 102.769V102.769ZM117.994 79.3875C116.363 76.6688 115.275 73.95 113.644 71.2313C112.012 68.5125 110.381 66.3375 109.294 63.6188C114.188 64.1625 118.538 65.25 123.431 65.7938C121.8 70.6875 120.169 75.0375 117.994 79.3875ZM87 45.1313C90.2625 48.3938 92.9813 52.2 95.7 56.0063C89.7188 55.4625 83.7375 55.4625 77.7563 56.0063C81.0188 52.2 84.2812 48.3938 87 45.1313ZM52.2 26.6438C57.0938 23.925 68.5125 27.7312 80.475 38.6062L82.65 40.7813C77.7562 45.675 73.4063 51.1125 69.6 57.0938C62.5313 57.6375 56.0063 58.725 49.4813 60.3563C48.9375 58.725 48.9375 57.0937 48.3937 55.4625C45.1312 40.7812 47.3063 29.3625 52.2 26.6438V26.6438ZM44.5875 106.575C43.5 106.031 41.8688 106.031 40.7812 105.488C33.1688 102.769 27.1875 99.5063 22.8375 96.2438C19.0312 92.9813 17.4 89.7188 17.4 87C17.4 81.5625 25.5563 74.4938 39.6938 69.6C41.325 69.0563 42.9563 68.5125 45.1313 67.9688C46.7625 74.4938 48.9375 81.0188 52.2 87C48.9375 93.525 46.7625 100.05 44.5875 106.575V106.575ZM79.9312 136.481C73.95 141.919 67.9688 145.181 63.075 147.356C58.1813 148.987 54.9188 148.988 52.2 147.9C47.3063 145.181 45.1313 134.306 47.85 120.169C48.3938 117.994 48.9375 116.362 48.9375 114.187C55.4625 115.819 62.5313 116.906 69.6 116.906C73.4063 122.344 77.7562 127.781 82.65 133.219C81.5625 134.306 81.0187 135.394 79.9312 136.481V136.481ZM87 128.869C83.7375 125.606 81.0188 121.8 77.7563 117.994H95.7C93.525 121.8 90.2625 125.606 87 128.869ZM126.694 138.112C125.606 143.006 123.975 146.269 121.8 147.356C116.906 150.075 106.575 146.269 95.7 137.025C94.6125 135.938 92.9812 134.85 91.8937 133.762C96.2437 128.869 100.594 123.431 104.4 117.45C111.469 116.906 117.994 115.819 125.062 114.187C125.606 115.275 125.606 116.906 126.15 117.994C127.781 125.606 127.781 132.675 126.694 138.112V138.112ZM132.131 105.488C131.044 105.488 130.5 106.031 129.412 106.031C127.237 99.5062 124.519 92.9813 121.8 86.4563C124.519 80.475 127.237 73.95 129.412 67.425C131.044 67.9688 132.675 68.5125 133.763 69.0563C147.9 73.95 156.6 81.0188 156.6 86.4563C156.6 92.9813 147.356 100.594 132.131 105.488V105.488Z" fill="white"/>
<path d="M86.9998 100.594C89.7186 100.594 92.4373 100.05 94.6123 98.4188C96.7873 96.7875 98.4186 94.6125 99.5061 92.4375C100.594 89.7188 100.594 87 100.05 84.2813C99.5061 81.5625 98.4186 79.3875 96.2436 77.2125C94.6123 75.0375 91.8936 73.95 89.1748 73.4063C86.4561 72.8625 83.7373 73.4063 81.0186 73.95C78.2998 75.0375 76.1248 76.6688 75.0373 78.8438C73.4061 81.0188 72.8623 83.7375 72.8623 86.4563C72.8623 88.0875 73.4061 90.2625 73.9498 91.8938C74.4936 93.525 75.5811 95.1563 76.6686 96.2438C77.7561 97.3313 79.3873 98.4188 81.0186 98.9625C83.1936 100.05 85.3686 100.594 86.9998 100.594V100.594Z" fill="white"/>
</svg>
